<?xml version="1.0" encoding="utf-8"?>
<!-- Generator: Adobe Illustrator 16.0.0, SVG Export Plug-In . SVG Version: 6.00 Build 0)  -->
<!DOCTYPE svg PUBLIC "-//W3C//DTD SVG 1.1//EN" "http://www.w3.org/Graphics/SVG/1.1/DTD/svg11.dtd">
<svg version="1.1" id="Layer_1" xmlns="http://www.w3.org/2000/svg" xmlns:xlink="http://www.w3.org/1999/xlink" x="0px" y="0px"
	 width="841.891px" height="595.279px" viewBox="0 0 841.891 595.279" enable-background="new 0 0 841.891 595.279"
	 xml:space="preserve">
<path fill="#9D9D9C" d="M1083.502,328.729l-56.996-67.589c-98.666,26.151-365.901,71.554-387.051,58.864
	c-14.513-8.104-0.771-70.463,16.211-142.16c6.354-47.752,94.928-33.583,111.02-35.128V63H47.352v79.716
	c16.091,1.545,104.667-12.624,111.019,35.128c16.981,71.696,30.724,134.055,16.209,142.16
	c-21.147,12.689-249.468-32.713-348.135-58.864l-49,67l49,33v290h1188v-290L1083.502,328.729z M175.352,187.384
	c-5.559-55.454,54.167-47.339,231.667-47.339s237.223-8.116,231.666,47.338c-12.633,75.691-21.333,136.953-61.666,146.524
	C496,353.27,395.333,309.27,342,309.936c-92-3.332-65.333,25.15-104.98,23.973C196.686,324.337,187.985,263.076,175.352,187.384z"/>
</svg>
