<?xml version="1.0" encoding="utf-8"?>
<!-- Generator: Adobe Illustrator 16.0.0, SVG Export Plug-In . SVG Version: 6.00 Build 0)  -->
<!DOCTYPE svg PUBLIC "-//W3C//DTD SVG 1.1//EN" "http://www.w3.org/Graphics/SVG/1.1/DTD/svg11.dtd">
<svg version="1.1" id="Layer_1" xmlns="http://www.w3.org/2000/svg" xmlns:xlink="http://www.w3.org/1999/xlink" x="0px" y="0px"
	 width="1450px" height="650px" viewBox="0 0 1450 650" enable-background="new 0 0 1450 650" xml:space="preserve">
<g>
	<path d="M678.5,361.5H151c-41.907,0-76,34.094-76,76V500c0,41.906,34.093,76,76,76h462.5c41.907,0,76-34.094,76-76V372.5
		C689.5,366.435,684.565,361.5,678.5,361.5z M687.5,500c0,40.804-33.196,74-74,74H151c-40.804,0-74-33.196-74-74v-62.5
		c0-40.804,33.196-74,74-74h527.5c4.962,0,9,4.037,9,9V500z"/>
	<path d="M1407.799,43.202C1379.295,14.698,1341.366-1,1301-1H838.5c-40.366,0-78.295,15.698-106.799,44.202
		C703.198,71.706,687.5,109.634,687.5,150v127.5c0,4.962-4.038,9-9,9v0.035c-0.368-0.035-0.856-0.035-1.499-0.035L151,286.5l0,0.615
		L151,286.5c-40.363,0-78.291,15.699-106.796,44.204C15.699,359.209,0,397.137,0,437.5V500c0,40.366,15.698,78.295,44.202,106.799
		C72.706,635.302,110.634,651,151,651h462.5c40.366,0,78.294-15.698,106.798-44.201C748.802,578.295,764.5,540.366,764.5,500V372.5
		c0-4.963,4.037-9,9-9H1301c40.366,0,78.295-15.698,106.799-44.202C1436.302,290.794,1452,252.866,1452,212.5V150
		C1452,109.633,1436.302,71.705,1407.799,43.202z M1450,212.5c0,82.159-66.841,149-149,149H773.5c-6.065,0-11,4.935-11,11V500
		c0,82.159-66.841,149-149,149H151C68.841,649,2,582.159,2,500v-62.5c0-82.159,66.841-149,149-149h5c5.218,0,521.783,0,522.5,0.001
		c6.065,0,11-4.935,11-11V150c0-82.159,66.841-149,149-149H1301c82.159,0,149,66.841,149,149V212.5z"/>
	<path d="M773.5,288.5H1301c41.906,0,76-34.093,76-76V150c0-41.907-34.094-76-76-76H838.5c-41.906,0-76,34.093-76,76v127.5
		C762.5,283.565,767.435,288.5,773.5,288.5z M764.5,150c0-40.804,33.196-74,74-74H1301c40.804,0,74,33.196,74,74v62.5
		c0,40.804-33.196,74-74,74H773.5c-4.963,0-9-4.038-9-9V150z"/>
	<path d="M1301,33.219H838.5c-62.584,0-113.5,50.916-113.5,113.5V287.5h2V146.719c0-61.481,50.019-111.5,111.5-111.5H1301
		c61.481,0,111.5,50.019,111.5,111.5V212.5c0,61.481-50.019,111.5-111.5,111.5H763.5v2H1301c62.584,0,113.5-50.916,113.5-113.5
		v-65.781C1414.5,84.135,1363.584,33.219,1301,33.219z"/>
	<path d="M725,503.281c0,61.481-50.019,111.5-111.5,111.5H151c-61.481,0-111.5-50.019-111.5-111.5V437.5
		C39.5,376.019,89.519,326,151,326h537.5v-2H151c-62.584,0-113.5,50.917-113.5,113.5v65.781c0,62.584,50.916,113.5,113.5,113.5
		h462.5c62.584,0,113.5-50.916,113.5-113.5V362.5h-2V503.281z"/>
</g>
</svg>
