<?xml version="1.0" encoding="utf-8"?>
<!-- Generator: Adobe Illustrator 16.0.0, SVG Export Plug-In . SVG Version: 6.00 Build 0)  -->
<!DOCTYPE svg PUBLIC "-//W3C//DTD SVG 1.1//EN" "http://www.w3.org/Graphics/SVG/1.1/DTD/svg11.dtd">
<svg version="1.1" id="Layer_1" xmlns="http://www.w3.org/2000/svg" xmlns:xlink="http://www.w3.org/1999/xlink" x="0px" y="0px"
	 width="1450px" height="650px" viewBox="0 0 1450 650" enable-background="new 0 0 1450 650" xml:space="preserve">
<path stroke="#000000" stroke-miterlimit="10" d="M1301,0H838.5c-82.91,0-150,67.09-150,150v127.5c0,5.527-4.473,10-10,10
	c0-0.001-522.5-0.001-522.5-0.001h-5c-82.91,0-150,67.09-150,150V500c0,82.91,67.09,150,150,150h462.5c82.91,0,150-67.09,150-150
	V372.5c0-5.527,4.473-10,10-10H1296h5c82.91,0,150-67.09,150-150V150C1451,67.09,1383.91,0,1301,0z M688.5,500
	c0,41.455-33.545,75-75,75H151c-41.455,0-75-33.545-75-75v-62.5c0-41.455,33.545-75,75-75h527.5c5.527,0,10,4.473,10,10V500z
	 M1376,212.5c0,41.455-33.545,75-75,75H773.5c-5.527,0-10-4.473-10-10V150c0-41.455,33.545-75,75-75H1301c41.455,0,75,33.545,75,75
	V212.5z"/>
</svg>
